<svg width="58" height="75" viewBox="0 0 58 75" fill="none" xmlns="http://www.w3.org/2000/svg">
<path d="M0.32 16.64H4.096L14.208 14.784V30.208C15.4027 29.184 16.704 28.3733 18.112 27.776C19.5627 27.1787 21.0773 26.88 22.656 26.88C24.4053 26.88 25.9627 27.1573 27.328 27.712C28.6933 28.224 29.824 29.0773 30.72 30.272C31.6587 31.424 32.3627 32.96 32.832 34.88C33.3013 36.7573 33.536 39.04 33.536 41.728C33.536 44.4587 33.28 46.784 32.768 48.704C32.256 50.5813 31.4027 52.1173 30.208 53.312C29.0133 54.464 27.456 55.296 25.536 55.808C23.6587 56.32 21.3547 56.576 18.624 56.576C17.0027 56.576 15.4453 56.4267 13.952 56.128C12.5013 55.872 11.3493 55.6373 10.496 55.424L4.096 55.744V19.84H0.32V16.64ZM21.888 30.336C20.48 30.336 19.0933 30.8053 17.728 31.744C16.4053 32.64 15.232 33.7707 14.208 35.136V53.12C14.9333 53.3333 15.68 53.4827 16.448 53.568C17.216 53.6533 17.9413 53.696 18.624 53.696C19.648 53.696 20.4587 53.632 21.056 53.504C21.3973 53.4613 21.6747 53.3973 21.888 53.312C22.1013 52.3307 22.2933 51.2427 22.464 50.048C22.592 49.024 22.72 47.808 22.848 46.4C22.976 44.9493 23.04 43.392 23.04 41.728C23.04 39.68 22.976 37.952 22.848 36.544C22.72 35.0933 22.592 33.8987 22.464 32.96C22.2933 31.8507 22.1013 30.976 21.888 30.336Z" fill="black"/>
<path d="M36.71 51.4496H38.9756L44.774 50.336V52.7552C45.5164 52.064 46.3356 51.5264 47.2316 51.1424C48.1276 50.7328 49.0748 50.528 50.0732 50.528C51.1228 50.528 52.0572 50.6944 52.8764 51.0272C53.6956 51.3344 54.374 51.8464 54.9116 52.5632C55.4748 53.2544 55.8972 54.176 56.1788 55.328C56.4604 56.4544 56.6012 57.824 56.6012 59.4368C56.6012 61.0752 56.4476 62.4704 56.1404 63.6224C55.8332 64.7488 55.3212 65.6704 54.6044 66.3872C53.8876 67.0784 52.9532 67.5776 51.8012 67.8848C50.6748 68.192 49.2924 68.3456 47.654 68.3456C47.1932 68.3456 46.7452 68.32 46.31 68.2688C45.8748 68.2176 45.4524 68.1664 45.0428 68.1152V74.336H36.71V72.3776H38.9756V53.3696H36.71V51.4496ZM49.6124 52.6016C48.7676 52.6016 47.9484 52.8704 47.1548 53.408C46.3612 53.9456 45.6572 54.6112 45.0428 55.4048V66.272C45.478 66.4 45.926 66.4896 46.3868 66.5408C46.8476 66.592 47.27 66.6176 47.654 66.6176C48.2684 66.6176 48.7548 66.5792 49.1132 66.5024C49.318 66.4768 49.4844 66.4384 49.6124 66.3872C49.7404 65.7984 49.8556 65.1456 49.958 64.4288C50.0348 63.8144 50.1116 63.0848 50.1884 62.24C50.2652 61.3696 50.3036 60.4352 50.3036 59.4368C50.3036 58.208 50.2652 57.1712 50.1884 56.3264C50.1116 55.456 50.0348 54.7392 49.958 54.176C49.8556 53.5104 49.7404 52.9856 49.6124 52.6016Z" fill="#9B59B6"/>
<line x1="4" y1="60.5" x2="34" y2="60.5" stroke="#9B59B6" stroke-width="3"/>
<line x1="4" y1="64.5" x2="34" y2="64.5" stroke="#9B59B6" stroke-width="3"/>
<line x1="4" y1="68.5" x2="34" y2="68.5" stroke="#9B59B6" stroke-width="3"/>
<line x1="4" y1="72.5" x2="34" y2="72.5" stroke="#9B59B6" stroke-width="3"/>
<line x1="36" y1="45.5" x2="57" y2="45.5" stroke="black" stroke-width="3"/>
<line x1="36" y1="39.5" x2="57" y2="39.5" stroke="black" stroke-width="3"/>
<line x1="36" y1="33.5" x2="57" y2="33.5" stroke="black" stroke-width="3"/>
<line x1="36" y1="27.5" x2="57" y2="27.5" stroke="black" stroke-width="3"/>
<line x1="16" y1="21.5" x2="57" y2="21.5" stroke="black" stroke-width="3"/>
<line x1="16" y1="15.5" x2="57" y2="15.5" stroke="black" stroke-width="3"/>
</svg>
