<svg width="256" height="69" viewBox="0 0 256 69" fill="none" xmlns="http://www.w3.org/2000/svg">
<path d="M7.296 52.288V20.352H1.6V16.64H16.32C17.088 16.64 17.8133 16.6187 18.496 16.576C19.1787 16.5333 19.8613 16.512 20.544 16.512C26.048 16.512 30.1013 17.2587 32.704 18.752C35.3493 20.2027 36.672 22.7413 36.672 26.368C36.672 28.8853 36.032 30.8267 34.752 32.192C33.5147 33.5573 31.9573 34.5173 30.08 35.072C32.768 35.7547 34.752 36.9067 36.032 38.528C37.3547 40.1067 38.016 42.304 38.016 45.12C38.016 47.1253 37.6747 48.832 36.992 50.24C36.352 51.648 35.3707 52.8 34.048 53.696C32.7253 54.5493 31.04 55.168 28.992 55.552C26.944 55.936 24.5547 56.128 21.824 56.128C21.0987 56.128 20.3093 56.1067 19.456 56.064C18.6027 56.0213 17.6853 56 16.704 56H1.6V52.288H7.296ZM18.048 36.8V52.736C19.1147 52.864 20.3733 52.928 21.824 52.928C22.2933 52.928 22.72 52.928 23.104 52.928C23.5307 52.8853 23.8933 52.8427 24.192 52.8C24.5333 52.7573 24.832 52.6933 25.088 52.608C25.2587 51.968 25.4293 51.264 25.6 50.496C25.728 49.8133 25.8347 49.024 25.92 48.128C26.048 47.1893 26.112 46.1227 26.112 44.928C26.112 43.8187 26.0267 42.7733 25.856 41.792C25.728 40.768 25.5787 39.8933 25.408 39.168C25.2373 38.3147 25.024 37.5253 24.768 36.8H18.048ZM20.544 19.776C19.648 19.776 18.816 19.84 18.048 19.968V33.472H24.64C24.7253 32.8747 24.8107 32.192 24.896 31.424C24.9813 30.784 25.0453 30.0587 25.088 29.248C25.1733 28.3947 25.216 27.4773 25.216 26.496C25.216 25.5147 25.152 24.64 25.024 23.872C24.9387 23.0613 24.832 22.3573 24.704 21.76C24.5333 21.12 24.384 20.544 24.256 20.032C23.9573 19.9893 23.5947 19.9467 23.168 19.904C22.8267 19.8613 22.4213 19.84 21.952 19.84C21.4827 19.7973 21.0133 19.776 20.544 19.776ZM41.515 16.64H45.291L55.403 14.784V52.8C57.067 52.8 58.1123 52.3733 58.539 51.52C59.0083 50.6667 59.243 49.216 59.243 47.168H62.507C62.507 48.4907 62.443 49.7067 62.315 50.816C62.187 51.9253 61.803 52.8853 61.163 53.696C60.5657 54.5067 59.627 55.1467 58.347 55.616C57.067 56.0427 55.275 56.256 52.971 56.256C51.3923 56.256 50.091 56.0213 49.067 55.552C48.0857 55.0827 47.3177 54.528 46.763 53.888C46.2083 53.2053 45.8243 52.5227 45.611 51.84C45.3977 51.1147 45.291 50.5173 45.291 50.048V19.84H41.515V16.64ZM75.861 41.728C75.861 43.392 75.9037 44.9493 75.989 46.4C76.117 47.808 76.2663 49.024 76.437 50.048C76.6077 51.2853 76.7997 52.3947 77.013 53.376C77.2263 53.4613 77.5037 53.5253 77.845 53.568C78.3997 53.696 79.2103 53.76 80.277 53.76C81.301 53.76 82.1117 53.696 82.709 53.568C83.0503 53.5253 83.3277 53.4613 83.541 53.376C83.7543 52.3947 83.9463 51.2853 84.117 50.048C84.245 49.024 84.373 47.808 84.501 46.4C84.629 44.9493 84.693 43.392 84.693 41.728C84.693 40.064 84.629 38.528 84.501 37.12C84.373 35.712 84.245 34.4747 84.117 33.408C83.9463 32.2133 83.7543 31.104 83.541 30.08C83.285 30.0373 82.9863 29.9733 82.645 29.888C82.3463 29.8453 81.9837 29.8027 81.557 29.76C81.173 29.7173 80.7463 29.696 80.277 29.696C79.7223 29.696 79.253 29.7173 78.869 29.76C78.485 29.8027 78.1437 29.8453 77.845 29.888C77.5037 29.9733 77.2263 30.0373 77.013 30.08C76.7997 31.104 76.6077 32.2133 76.437 33.408C76.2663 34.4747 76.117 35.712 75.989 37.12C75.9037 38.528 75.861 40.064 75.861 41.728ZM65.365 41.728C65.365 38.9973 65.621 36.6933 66.133 34.816C66.645 32.896 67.4983 31.36 68.693 30.208C69.8877 29.0133 71.4237 28.16 73.301 27.648C75.1783 27.0933 77.5037 26.816 80.277 26.816C83.0077 26.816 85.3117 27.0933 87.189 27.648C89.109 28.16 90.6663 29.0133 91.861 30.208C93.0557 31.36 93.909 32.896 94.421 34.816C94.933 36.6933 95.189 38.9973 95.189 41.728C95.189 44.4587 94.933 46.784 94.421 48.704C93.909 50.5813 93.0557 52.1173 91.861 53.312C90.6663 54.464 89.109 55.3173 87.189 55.872C85.3117 56.384 83.0077 56.64 80.277 56.64C77.5037 56.64 75.1783 56.384 73.301 55.872C71.4237 55.3173 69.8877 54.464 68.693 53.312C67.4983 52.1173 66.645 50.5813 66.133 48.704C65.621 46.784 65.365 44.4587 65.365 41.728ZM121.566 63.296H124.126C125.534 63.296 126.408 63.1467 126.75 62.848C127.134 62.592 127.326 62.1227 127.326 61.44V60.48H110.878C108.83 60.48 107.102 60.3093 105.694 59.968C104.286 59.6693 103.155 59.1787 102.302 58.496C101.491 57.856 100.894 57.024 100.51 56C100.168 54.9333 99.9975 53.6747 99.9975 52.224C99.9975 51.1147 100.147 50.1547 100.446 49.344C100.744 48.5333 101.107 47.8507 101.534 47.296C102.003 46.7413 102.494 46.2933 103.006 45.952C103.56 45.6107 104.072 45.3547 104.542 45.184C103.176 44.416 102.195 43.3707 101.598 42.048C101.043 40.6827 100.766 38.976 100.766 36.928C100.766 35.0933 101 33.536 101.47 32.256C101.982 30.9333 102.792 29.888 103.902 29.12C105.011 28.3093 106.462 27.7333 108.254 27.392C110.046 27.008 112.243 26.816 114.846 26.816H122.526C123.592 26.816 124.424 26.7307 125.022 26.56C125.662 26.3893 126.131 26.1333 126.43 25.792C126.728 25.408 126.899 24.96 126.942 24.448C127.027 23.8933 127.07 23.232 127.07 22.464H130.526C130.526 24.768 130.163 26.432 129.438 27.456C128.712 28.48 127.667 29.184 126.302 29.568C128.051 31.1467 128.926 33.6 128.926 36.928C128.926 38.8053 128.67 40.384 128.158 41.664C127.688 42.944 126.899 43.9893 125.79 44.8C124.68 45.568 123.23 46.144 121.438 46.528C119.646 46.8693 117.448 47.04 114.846 47.04C112.072 47.04 109.768 46.848 107.934 46.464C107.422 46.592 106.888 46.784 106.334 47.04C105.822 47.2533 105.331 47.552 104.862 47.936C104.392 48.2773 104.008 48.6827 103.71 49.152C103.411 49.6213 103.262 50.1547 103.262 50.752H121.822C125.363 50.752 127.859 51.4133 129.31 52.736C130.803 54.016 131.55 56.0213 131.55 58.752C131.55 60.1173 131.443 61.2907 131.229 62.272C131.016 63.2533 130.632 64.064 130.078 64.704C129.566 65.344 128.819 65.8133 127.838 66.112C126.856 66.4533 125.598 66.624 124.062 66.624H121.566V63.296ZM111.262 36.928C111.262 37.952 111.304 38.8907 111.39 39.744C111.475 40.5973 111.582 41.3227 111.71 41.92C111.838 42.6453 111.987 43.3067 112.158 43.904C112.371 43.9467 112.606 43.9893 112.862 44.032C113.075 44.0747 113.331 44.1173 113.63 44.16C113.971 44.16 114.355 44.16 114.782 44.16C115.208 44.16 115.592 44.16 115.934 44.16C116.275 44.1173 116.552 44.0747 116.766 44.032C117.022 43.9893 117.256 43.9467 117.47 43.904C117.598 43.3067 117.747 42.6453 117.918 41.92C118.003 41.3227 118.088 40.5973 118.174 39.744C118.302 38.8907 118.366 37.952 118.366 36.928C118.366 35.9467 118.302 35.0293 118.174 34.176C118.088 33.28 118.003 32.5333 117.918 31.936C117.747 31.2107 117.598 30.5493 117.47 29.952L116.702 29.824C116.488 29.7813 116.211 29.76 115.87 29.76C115.528 29.7173 115.166 29.696 114.782 29.696C114.355 29.696 113.971 29.7173 113.63 29.76C113.331 29.76 113.075 29.7813 112.862 29.824C112.606 29.8667 112.371 29.9093 112.158 29.952C111.987 30.5493 111.838 31.2107 111.71 31.936C111.582 32.5333 111.475 33.28 111.39 34.176C111.304 35.0293 111.262 35.9467 111.262 36.928Z" fill="black"/>
<path d="M133.475 28.416H137.251L146.915 26.56V30.592C148.152 29.44 149.518 28.544 151.011 27.904C152.504 27.2213 154.083 26.88 155.747 26.88C157.496 26.88 159.054 27.1573 160.419 27.712C161.784 28.224 162.915 29.0773 163.811 30.272C164.75 31.424 165.454 32.96 165.923 34.88C166.392 36.7573 166.627 39.04 166.627 41.728C166.627 44.4587 166.371 46.784 165.859 48.704C165.347 50.5813 164.494 52.1173 163.299 53.312C162.104 54.464 160.547 55.296 158.627 55.808C156.75 56.32 154.446 56.576 151.715 56.576C150.947 56.576 150.2 56.5333 149.475 56.448C148.75 56.3627 148.046 56.2773 147.363 56.192V66.56H133.475V63.296H137.251V31.616H133.475V28.416ZM154.979 30.336C153.571 30.336 152.206 30.784 150.883 31.68C149.56 32.576 148.387 33.6853 147.363 35.008V53.12C148.088 53.3333 148.835 53.4827 149.603 53.568C150.371 53.6533 151.075 53.696 151.715 53.696C152.739 53.696 153.55 53.632 154.147 53.504C154.488 53.4613 154.766 53.3973 154.979 53.312C155.192 52.3307 155.384 51.2427 155.555 50.048C155.683 49.024 155.811 47.808 155.939 46.4C156.067 44.9493 156.131 43.392 156.131 41.728C156.131 39.68 156.067 37.952 155.939 36.544C155.811 35.0933 155.683 33.8987 155.555 32.96C155.384 31.8507 155.192 30.976 154.979 30.336ZM181.611 41.728C181.611 43.392 181.654 44.9493 181.739 46.4C181.867 47.808 182.016 49.024 182.187 50.048C182.358 51.2853 182.55 52.3947 182.763 53.376C182.976 53.4613 183.254 53.5253 183.595 53.568C184.15 53.696 184.96 53.76 186.027 53.76C187.051 53.76 187.862 53.696 188.459 53.568C188.8 53.5253 189.078 53.4613 189.291 53.376C189.504 52.3947 189.696 51.2853 189.867 50.048C189.995 49.024 190.123 47.808 190.251 46.4C190.379 44.9493 190.443 43.392 190.443 41.728C190.443 40.064 190.379 38.528 190.251 37.12C190.123 35.712 189.995 34.4747 189.867 33.408C189.696 32.2133 189.504 31.104 189.291 30.08C189.035 30.0373 188.736 29.9733 188.395 29.888C188.096 29.8453 187.734 29.8027 187.307 29.76C186.923 29.7173 186.496 29.696 186.027 29.696C185.472 29.696 185.003 29.7173 184.619 29.76C184.235 29.8027 183.894 29.8453 183.595 29.888C183.254 29.9733 182.976 30.0373 182.763 30.08C182.55 31.104 182.358 32.2133 182.187 33.408C182.016 34.4747 181.867 35.712 181.739 37.12C181.654 38.528 181.611 40.064 181.611 41.728ZM171.115 41.728C171.115 38.9973 171.371 36.6933 171.883 34.816C172.395 32.896 173.248 31.36 174.443 30.208C175.638 29.0133 177.174 28.16 179.051 27.648C180.928 27.0933 183.254 26.816 186.027 26.816C188.758 26.816 191.062 27.0933 192.939 27.648C194.859 28.16 196.416 29.0133 197.611 30.208C198.806 31.36 199.659 32.896 200.171 34.816C200.683 36.6933 200.939 38.9973 200.939 41.728C200.939 44.4587 200.683 46.784 200.171 48.704C199.659 50.5813 198.806 52.1173 197.611 53.312C196.416 54.464 194.859 55.3173 192.939 55.872C191.062 56.384 188.758 56.64 186.027 56.64C183.254 56.64 180.928 56.384 179.051 55.872C177.174 55.3173 175.638 54.464 174.443 53.312C173.248 52.1173 172.395 50.5813 171.883 48.704C171.371 46.784 171.115 44.4587 171.115 41.728ZM219.06 26.944C220.041 26.944 220.937 27.0293 221.748 27.2C222.558 27.328 223.284 27.4987 223.924 27.712L228.212 26.752V36.608C226.59 36.608 225.246 36.3733 224.18 35.904C223.156 35.392 222.324 34.7947 221.684 34.112C221.044 33.3867 220.553 32.64 220.212 31.872C219.913 31.0613 219.7 30.3787 219.572 29.824H219.06C218.676 29.824 218.334 29.8453 218.036 29.888C217.78 29.888 217.545 29.9093 217.332 29.952C217.118 29.9947 216.948 30.0373 216.82 30.08C216.692 30.2507 216.585 30.464 216.5 30.72C216.414 30.9333 216.35 31.232 216.308 31.616C216.265 32 216.244 32.448 216.244 32.96C216.244 33.7707 216.329 34.432 216.5 34.944C216.67 35.456 216.926 35.8827 217.268 36.224C217.652 36.5653 218.142 36.8427 218.74 37.056C219.337 37.2693 220.084 37.504 220.98 37.76C222.132 38.0587 223.262 38.4427 224.372 38.912C225.524 39.3387 226.548 39.9147 227.444 40.64C228.34 41.3653 229.065 42.2827 229.62 43.392C230.217 44.4587 230.516 45.76 230.516 47.296C230.516 49.0027 230.217 50.4533 229.62 51.648C229.022 52.8 228.169 53.7387 227.06 54.464C225.993 55.1893 224.649 55.7013 223.028 56C221.449 56.3413 219.678 56.512 217.716 56.512C216.094 56.512 214.729 56.4267 213.62 56.256C212.553 56.128 211.7 55.9573 211.06 55.744L206.644 56.704V46.208C208.222 46.208 209.545 46.4853 210.612 47.04C211.678 47.5947 212.532 48.256 213.172 49.024C213.812 49.792 214.281 50.6027 214.58 51.456C214.878 52.2667 215.092 52.9707 215.22 53.568C215.476 53.6107 215.71 53.632 215.924 53.632H217.78C218.164 53.632 218.505 53.6107 218.804 53.568C219.145 53.5253 219.465 53.4827 219.764 53.44C219.849 53.2693 219.934 53.0347 220.02 52.736C220.105 52.48 220.169 52.1387 220.212 51.712C220.297 51.2853 220.34 50.7733 220.34 50.176C220.34 48.9387 219.977 47.9573 219.252 47.232C218.569 46.5067 217.694 45.9093 216.628 45.44C215.561 44.928 214.409 44.4587 213.172 44.032C211.977 43.5627 210.846 43.008 209.78 42.368C208.713 41.6853 207.817 40.8107 207.092 39.744C206.409 38.6347 206.068 37.1627 206.068 35.328C206.068 34.048 206.281 32.896 206.708 31.872C207.177 30.8053 207.902 29.9093 208.884 29.184C209.908 28.4587 211.252 27.904 212.916 27.52C214.58 27.136 216.628 26.944 219.06 26.944ZM236.598 24.32L246.71 21.568V27.264H254.39V30.464H246.71V52.8H248.054C250.528 52.8 251.766 50.9227 251.766 47.168H255.03C255.03 48.5333 254.944 49.7707 254.774 50.88C254.646 51.9893 254.24 52.9493 253.558 53.76C252.918 54.5707 251.936 55.1893 250.614 55.616C249.334 56.0427 247.542 56.256 245.238 56.256C243.659 56.256 242.315 56.0853 241.206 55.744C240.096 55.36 239.2 54.8693 238.518 54.272C237.835 53.6747 237.344 53.0133 237.046 52.288C236.747 51.5627 236.598 50.816 236.598 50.048V24.32Z" fill="#9B59B6"/>
<line x1="1" y1="65" x2="95" y2="65" stroke="black" stroke-width="8"/>
<line x1="155" y1="63" x2="255" y2="63" stroke="#9B59B6" stroke-width="8"/>
</svg>
